<?xml version="1.0" standalone="no"?>
<!DOCTYPE svg PUBLIC "-//W3C//DTD SVG 20010904//EN"
 "http://www.w3.org/TR/2001/REC-SVG-20010904/DTD/svg10.dtd">
<svg version="1.0" xmlns="http://www.w3.org/2000/svg"
 width="2000.000000pt" height="2000.000000pt" viewBox="0 0 2000.000000 2000.000000"
 preserveAspectRatio="xMidYMid meet">
<metadata>
Created by potrace 1.14, written by Peter Selinger 2001-2017
</metadata>
<g transform="translate(0.000000,2000.000000) scale(0.100000,-0.100000)"
fill="#000000" stroke="none">
<path d="M9568 19995 c-1 -1 -58 -6 -125 -9 -136 -7 -224 -13 -298 -21 -27 -3
-74 -8 -104 -10 -114 -10 -210 -20 -281 -30 -19 -2 -55 -7 -80 -10 -25 -3 -56
-8 -70 -10 -14 -2 -45 -7 -70 -10 -217 -27 -629 -107 -930 -181 -937 -229
-1903 -624 -2714 -1111 -49 -29 -92 -53 -97 -53 -5 0 -9 -4 -9 -8 0 -5 -12
-14 -27 -21 -30 -14 -64 -35 -288 -184 -420 -279 -786 -562 -1154 -892 -357
-320 -807 -792 -1081 -1134 -19 -24 -47 -58 -61 -75 -103 -124 -304 -399 -481
-656 -60 -88 -270 -421 -316 -500 -135 -236 -179 -315 -245 -440 -72 -137 -81
-155 -82 -160 -1 -3 -34 -72 -74 -155 -41 -82 -100 -211 -132 -285 -33 -74
-64 -144 -69 -155 -32 -69 -177 -443 -185 -475 -2 -8 -20 -60 -40 -115 -21
-55 -38 -104 -40 -110 -1 -5 -5 -17 -8 -25 -47 -116 -252 -861 -272 -985 -1
-11 -7 -40 -13 -65 -6 -25 -13 -58 -16 -74 -3 -16 -10 -52 -16 -80 -26 -132
-49 -255 -55 -296 -3 -25 -10 -70 -15 -100 -5 -30 -12 -75 -15 -100 -3 -25 -8
-56 -10 -70 -2 -14 -7 -45 -10 -70 -3 -25 -7 -61 -10 -80 -6 -45 -12 -101 -20
-175 -3 -33 -8 -76 -10 -95 -3 -19 -7 -69 -10 -110 -3 -41 -8 -97 -10 -125
-15 -194 -20 -363 -20 -740 1 -441 7 -626 30 -850 3 -27 8 -81 11 -120 3 -38
7 -81 9 -95 2 -14 7 -54 10 -90 4 -36 8 -72 10 -80 2 -8 6 -44 10 -80 4 -36 8
-67 10 -70 2 -3 6 -37 10 -75 4 -39 9 -73 11 -76 2 -3 6 -24 9 -45 2 -21 12
-79 20 -129 9 -49 19 -106 22 -125 3 -19 21 -107 39 -195 19 -88 37 -171 40
-185 2 -14 7 -33 10 -42 3 -10 7 -29 10 -43 8 -46 84 -336 126 -480 68 -237
216 -678 279 -830 7 -16 13 -32 14 -35 1 -3 7 -18 13 -33 7 -16 12 -30 12 -33
0 -2 9 -23 19 -47 11 -23 32 -71 46 -107 15 -36 35 -83 45 -105 10 -22 32 -74
50 -115 40 -92 251 -522 318 -645 64 -119 178 -321 206 -365 13 -19 71 -114
131 -210 140 -226 407 -614 502 -730 7 -8 56 -71 109 -140 94 -121 347 -424
389 -465 11 -12 52 -56 90 -100 81 -92 477 -491 581 -586 39 -35 93 -85 120
-110 66 -61 379 -327 429 -364 22 -16 42 -32 45 -35 11 -12 183 -143 325 -247
270 -198 538 -373 835 -548 103 -60 155 -90 295 -167 160 -88 604 -303 800
-386 716 -306 1469 -533 2181 -656 93 -17 275 -46 314 -51 25 -3 56 -8 70 -10
36 -6 86 -13 155 -21 33 -3 67 -8 75 -9 8 -2 51 -6 95 -10 44 -4 90 -8 101
-10 12 -2 59 -6 105 -10 46 -4 102 -8 124 -10 144 -13 394 -20 750 -20 352 0
509 4 710 20 22 1 81 6 130 9 50 4 101 9 115 11 14 2 52 6 85 9 66 6 132 13
185 21 19 3 58 7 85 11 28 3 75 9 105 14 30 5 73 12 95 15 40 5 72 10 130 20
47 8 197 34 225 40 14 3 48 9 75 15 28 5 59 11 70 14 25 6 173 37 200 42 181
35 676 176 955 271 118 40 222 75 230 77 73 21 511 199 725 296 256 116 747
371 892 463 24 15 45 27 47 27 2 0 42 23 88 51 320 197 582 374 837 567 85 65
166 126 180 137 41 31 375 307 386 319 6 6 48 45 95 86 191 167 505 475 672
658 59 64 118 128 130 142 87 95 359 420 414 495 16 22 31 42 35 45 3 3 25 32
50 65 24 33 46 62 49 65 7 7 143 195 209 290 150 215 408 626 511 815 18 33
55 101 82 150 105 190 428 870 428 900 0 3 9 25 19 48 35 78 212 549 225 602
2 6 6 17 9 25 46 113 210 705 263 950 4 19 9 40 10 45 2 6 5 19 7 30 7 27 64
321 72 365 3 19 13 73 21 120 8 47 17 104 20 126 3 23 6 50 8 60 5 24 14 87
21 139 3 22 7 56 10 75 4 36 9 81 20 180 10 107 14 146 20 225 4 44 8 91 10
104 19 116 28 1067 12 1296 -4 61 -10 142 -12 180 -3 39 -7 94 -10 123 -3 28
-7 78 -10 110 -5 54 -8 83 -20 192 -7 68 -17 143 -21 165 -2 11 -6 43 -9 70
-3 28 -8 57 -10 65 -2 8 -7 39 -10 69 -4 30 -9 63 -11 75 -5 23 -6 33 -29 161
-41 242 -69 370 -147 685 -117 477 -317 1066 -513 1515 -158 362 -407 852
-556 1094 -15 25 -45 75 -65 111 -21 36 -40 67 -44 70 -3 3 -19 28 -35 55
-132 229 -516 765 -735 1029 -89 107 -257 304 -270 316 -8 8 -51 56 -95 105
-84 95 -498 512 -601 605 -122 111 -211 189 -294 260 -47 40 -96 82 -110 94
-283 240 -706 544 -1112 799 -221 139 -732 423 -856 477 -13 5 -71 33 -130 61
-526 252 -1146 478 -1757 639 -66 18 -131 34 -144 37 -14 2 -79 17 -145 33
-130 31 -300 66 -362 75 -22 4 -47 8 -56 11 -18 5 -32 8 -98 18 -19 3 -44 7
-55 10 -11 2 -45 7 -75 11 -30 5 -62 9 -70 11 -14 2 -145 21 -200 29 -71 10
-110 15 -160 20 -30 3 -71 7 -90 10 -19 2 -66 7 -105 10 -38 3 -86 8 -105 10
-19 2 -75 7 -125 11 -49 3 -115 8 -145 10 -67 5 -1017 14 -1022 9z"/>
</g>
</svg>
